<svg width="436" height="434" viewBox="0 0 436 434" fill="none" xmlns="http://www.w3.org/2000/svg">
<rect width="436" height="434" rx="64" fill="#3E3E3E"/>
<path d="M192.183 401.037C156.574 395.57 125.101 381.442 98.2423 358.867C69.8943 335.04 49.1044 302.86 39.2745 267.593C33.6143 247.286 32.7877 240.83 32.7891 216.942C32.7901 196.775 33.0191 193.859 35.5365 181.942C43.6636 143.469 60.8938 111.441 87.6627 85.0479C115.312 57.7865 147.364 41.3436 187.683 33.7362C200.436 31.3299 234.974 31.3386 248.183 33.7514C299.566 43.1368 343.592 71.5718 372.061 113.76C383.367 130.515 395.02 157.558 399.147 176.621C404.744 202.472 404.549 233.482 398.628 259.028C384.402 320.408 338.544 371.431 278.828 392.322C258.351 399.486 245.972 401.58 221.683 401.988C207.705 402.224 197.841 401.905 192.183 401.037ZM235.183 366.811C287.558 356.251 323.821 317.134 330.236 264.279C331.544 253.495 331.075 250.075 329.022 255.437C325.838 263.749 318.006 278.514 313.103 285.442C310.185 289.567 303.787 296.919 298.885 301.78C260.285 340.062 206.875 357.362 158.019 347.408C146.496 345.06 132.263 340.529 125.254 336.978C118.928 333.772 118.812 334.837 124.976 339.513C138.607 349.851 160.131 360.558 175.217 364.503C194.04 369.426 217.7 370.337 235.183 366.811ZM136.282 300.692C117.993 282.53 109.091 266.897 103.115 242.442C99.9709 229.578 99.9266 205.583 103.015 188.361C113.498 129.901 150.733 85.5971 205.105 66.8894C214.398 63.6921 214.549 63.5916 210.183 63.5238C200.586 63.3745 177.767 67.9234 165.683 72.395C125.161 87.3899 93.2836 117.823 77.7944 156.302C76.3864 159.799 73.9949 167.449 72.4799 173.302C69.9761 182.974 69.7235 185.58 69.7044 201.942C69.6879 216.032 70.0882 221.68 71.5471 227.942C79.6953 262.919 102.067 290.926 134.683 306.985C140.733 309.964 146.23 312.41 146.899 312.422C147.568 312.433 142.79 307.155 136.282 300.692ZM239.683 299.919C247.017 297.909 260.468 291.719 266.463 287.594C282.054 276.867 294.987 258.627 300.398 239.734C303.453 229.069 303.66 205.304 300.785 195.442C291.687 164.241 269.114 142.345 237.183 133.748C227.305 131.088 206.162 131.341 195.924 134.242C165.833 142.769 142.948 165.742 134.96 195.442C131.944 206.658 131.911 227.122 134.892 238.008C143.511 269.474 167.308 293.132 197.183 299.935C201.308 300.874 205.133 301.818 205.683 302.032C208.253 303.033 234.207 301.42 239.683 299.919ZM365.503 259.442C370.176 243.186 371.502 231.68 370.862 212.952C370.165 192.555 368.583 184.763 361.372 166.2C349.158 134.757 320.198 106.45 290.183 96.6137C272.784 90.9118 250.929 89.0493 234.027 91.8278C223.982 93.4793 208.182 98.0081 208.185 99.2355C208.186 99.6241 213.473 99.9659 219.935 99.9952C237.382 100.074 251.11 103.343 269.502 111.797C327.977 138.676 364.924 196.983 361.777 257.42C361.032 271.729 361.845 272.17 365.503 259.442Z" fill="white"/>
</svg>
